<?xml version="1.0" standalone="no"?>
<!DOCTYPE svg PUBLIC "-//W3C//DTD SVG 20010904//EN"
 "http://www.w3.org/TR/2001/REC-SVG-20010904/DTD/svg10.dtd">
<svg version="1.0" xmlns="http://www.w3.org/2000/svg"
 width="500.000000pt" height="500.000000pt" viewBox="0 0 500.000000 500.000000"
 preserveAspectRatio="xMidYMid meet">

<g transform="translate(0.000000,500.000000) scale(0.100000,-0.100000)"
fill="#000000" stroke="none">
<path d="M3090 4670 c-117 -10 -243 -55 -290 -105 -22 -23 -23 -27 -8 -42 15
-14 23 -12 95 24 240 123 535 74 857 -142 111 -74 263 -202 316 -266 142 -170
231 -376 294 -679 31 -144 56 -319 56 -387 1 -37 5 -99 10 -138 5 -38 14 -135
20 -215 11 -157 35 -352 51 -414 6 -21 14 -62 19 -90 5 -28 21 -105 35 -171
53 -248 54 -492 3 -642 -22 -68 -19 -93 11 -93 48 0 91 172 91 363 0 138 -14
239 -68 507 -48 233 -62 321 -62 380 0 30 -7 109 -15 175 -8 66 -19 172 -25
235 -19 222 -30 316 -46 400 -33 176 -73 338 -100 398 -7 18 -14 37 -14 43 0
17 -79 174 -119 236 -124 193 -370 399 -616 518 -192 92 -319 119 -495 105z"/>
<path d="M2970 4433 c-145 -12 -440 -122 -440 -164 0 -4 7 -15 16 -24 15 -14
20 -13 63 11 165 93 348 132 519 109 195 -26 294 -100 584 -437 46 -53 133
-152 193 -221 126 -142 212 -278 245 -387 13 -41 29 -95 37 -120 16 -50 40
-307 29 -317 -12 -13 -44 29 -70 95 -84 207 -198 380 -369 556 -132 136 -224
207 -365 283 -66 37 -190 83 -220 83 -9 0 -26 6 -37 14 -42 28 -292 120 -430
157 -191 51 -276 63 -440 63 -235 0 -337 -33 -515 -165 -139 -102 -251 -220
-391 -409 -47 -64 -145 -233 -199 -345 -135 -282 -185 -482 -185 -740 1 -245
55 -385 205 -536 181 -182 475 -308 880 -376 151 -26 648 -26 800 0 110 19
296 65 390 97 193 65 442 190 565 284 107 81 154 129 265 263 15 19 69 128 84
170 15 44 43 56 50 21 6 -32 27 -582 35 -951 6 -251 10 -310 22 -317 9 -6 20
-3 33 9 18 19 18 33 7 438 -7 230 -17 506 -22 613 -5 107 -13 341 -19 520 -13
432 -36 564 -129 745 -55 108 -127 205 -258 346 -54 58 -125 139 -158 179
-178 217 -274 306 -410 380 -106 58 -237 84 -365 73z m-528 -364 c209 -31 466
-107 616 -183 26 -13 88 -36 137 -51 50 -15 95 -31 100 -35 6 -4 21 -11 34
-15 32 -10 185 -100 236 -139 65 -49 213 -196 270 -266 197 -245 308 -498 331
-752 8 -82 -23 -214 -71 -307 -71 -138 -251 -310 -435 -418 -83 -49 -213 -113
-228 -113 -4 0 -18 -6 -32 -13 -35 -18 -251 -91 -325 -110 -146 -37 -198 -47
-318 -57 -246 -20 -591 -8 -757 27 -233 48 -490 149 -647 253 -119 79 -211
200 -265 350 -21 60 -23 81 -23 260 0 203 0 201 56 395 65 222 222 520 385
731 77 98 250 267 327 318 175 114 388 158 609 125z"/>
<path d="M2556 3101 c-16 -17 -16 -20 -1 -35 21 -20 28 -20 56 3 20 16 21 21
10 35 -18 21 -44 20 -65 -3z"/>
<path d="M2150 3070 c-14 -26 -5 -40 25 -40 39 0 55 11 55 36 0 21 -5 24 -35
24 -24 0 -37 -6 -45 -20z"/>
<path d="M2380 2775 c-14 -8 -37 -14 -51 -15 -15 0 -33 -7 -40 -16 -11 -14
-10 -19 10 -35 13 -11 31 -20 40 -20 9 -1 28 -2 43 -3 15 -1 35 -10 46 -19 22
-20 43 -22 60 -4 7 6 49 14 95 17 75 5 82 7 85 27 3 18 -4 24 -40 33 -23 7
-63 9 -87 6 -37 -5 -49 -2 -77 19 -37 29 -49 30 -84 10z"/>
<path d="M2822 2659 c-110 -202 -252 -345 -381 -384 -59 -17 -64 -18 -115 -2
-104 33 -149 96 -147 206 0 36 5 81 10 100 16 53 -18 95 -47 59 -13 -17 -32
-109 -32 -157 0 -60 27 -134 66 -179 85 -100 214 -123 341 -61 78 37 211 159
273 250 50 73 90 153 90 179 0 32 -38 25 -58 -11z"/>
<path d="M2311 4340 c-84 -44 -107 -45 -231 -10 -126 35 -156 36 -247 13 -85
-21 -157 -60 -305 -164 -269 -189 -416 -327 -548 -514 -121 -173 -174 -264
-291 -505 -195 -400 -207 -431 -284 -712 -55 -204 -53 -718 5 -1013 44 -224
86 -391 106 -422 8 -13 21 -23 30 -23 32 0 29 27 -26 250 -18 69 -59 297 -76
420 -26 187 -24 495 6 660 32 183 92 380 158 522 22 45 53 115 70 153 31 70
181 369 219 435 51 90 95 151 106 147 18 -6 21 -48 5 -82 -70 -147 -160 -406
-189 -543 -5 -24 -11 -47 -14 -52 -3 -5 -12 -44 -20 -87 -8 -43 -24 -127 -35
-188 -19 -101 -39 -269 -85 -696 -24 -228 -17 -745 13 -908 30 -159 38 -181
68 -181 29 0 31 22 8 125 -23 103 -43 349 -44 521 0 138 23 523 35 584 3 14
12 86 20 160 34 315 38 346 91 586 68 311 121 472 236 713 108 225 277 443
443 571 75 58 199 120 241 120 32 0 44 8 82 54 18 22 144 22 203 0 27 -10 79
-17 134 -18 75 -1 98 3 136 22 63 30 86 57 69 77 -16 20 -25 18 -89 -15z"/>
</g>
</svg>
